<svg xmlns="http://www.w3.org/2000/svg" x="0px" y="0px"
width="144" height="144"
viewBox="0 0 172 172"
style=" fill:#000000;"><defs><radialGradient cx="50.2354" cy="-26.74513" r="178.34214" gradientUnits="userSpaceOnUse" id="color-1_T1gUp49gbBC6_gr1"><stop offset="0" stop-color="#ffdd55"></stop><stop offset="0.328" stop-color="#ff543f"></stop><stop offset="0.348" stop-color="#fc5245"></stop><stop offset="0.504" stop-color="#e64771"></stop><stop offset="0.643" stop-color="#d53e91"></stop><stop offset="0.761" stop-color="#cc39a4"></stop><stop offset="0.841" stop-color="#c837ab"></stop></radialGradient><linearGradient x1="109.70318" y1="139.62301" x2="108.72392" y2="61.16471" gradientUnits="userSpaceOnUse" id="color-2_T1gUp49gbBC6_gr2"><stop offset="0" stop-color="#29abe2"></stop><stop offset="0.999" stop-color="#29abe2" stop-opacity="0"></stop></linearGradient><radialGradient cx="71.42923" cy="153.5424" r="79.1228" gradientUnits="userSpaceOnUse" id="color-3_T1gUp49gbBC6_gr3"><stop offset="0" stop-color="#29abe2"></stop><stop offset="0.613" stop-color="#aa00ff"></stop><stop offset="0.989" stop-color="#8343c8" stop-opacity="0"></stop></radialGradient><radialGradient cx="88.18583" cy="141.19244" r="43.86968" gradientUnits="userSpaceOnUse" id="color-4_T1gUp49gbBC6_gr4"><stop offset="0" stop-color="#29abe2"></stop><stop offset="0.973" stop-color="#29abe2" stop-opacity="0.026"></stop><stop offset="0.999" stop-color="#29abe2" stop-opacity="0"></stop></radialGradient></defs><g transform=""><g fill="none" fill-rule="nonzero" stroke="none" stroke-width="1" stroke-linecap="butt" stroke-linejoin="miter" stroke-miterlimit="10" stroke-dasharray="" stroke-dashoffset="0" font-family="none" font-weight="none" font-size="none" text-anchor="none" style="mix-blend-mode: normal"><path d="M0,172v-172h172v172z" fill="none"></path><path d="M86,94.6c-4.74965,0 -8.6,-3.85035 -8.6,-8.6v0c0,-4.74965 3.85035,-8.6 8.6,-8.6h0c4.74965,0 8.6,3.85035 8.6,8.6v0c0,4.74965 -3.85035,8.6 -8.6,8.6z" fill="#cccccc"></path><g><path d="M2.93833,37.36536v74.29648c0,16.90086 13.7008,30.60167 30.60167,30.60167h8.74333v14.78935c0,11.27453 13.2855,17.29431 21.76216,9.85811l28.10545,-24.65183h46.30906c16.90086,0 30.60167,-13.7008 30.60167,-30.60167v-74.2921c0,-16.90086 -13.7008,-30.60167 -30.60167,-30.60167h-104.92c-16.90086,0 -30.60167,13.7008 -30.60167,30.60167z" fill="url(#color-1_T1gUp49gbBC6_gr1)"></path><path d="M49.24303,48.81038h119.81864v62.87331c0,16.90086 -13.7008,30.60167 -30.60167,30.60167h-89.21697z" fill="url(#color-2_T1gUp49gbBC6_gr2)"></path><path d="M2.93833,70.52882l81.00261,41.80625l0.23607,36.50779l-20.07907,17.8058c-8.45917,7.50615 -21.81462,1.49948 -21.81462,-9.81002v-14.55328h-8.74333c-16.90086,0 -30.60167,-13.7008 -30.60167,-30.60167z" fill="url(#color-3_T1gUp49gbBC6_gr3)"></path><path d="M42.28333,99.31625h87.43333v42.96911h-37.56573l-28.10545,24.63871c-8.47666,7.43183 -21.76216,1.41205 -21.76216,-9.86248z" fill="url(#color-4_T1gUp49gbBC6_gr4)"></path><path d="M138.46,22.06452h-104.92c-8.43732,0 -15.30083,6.86352 -15.30083,15.30083v74.31833c0,8.43732 6.86352,15.30083 15.30083,15.30083h21.85833c1.22407,0 2.18583,0.96177 2.18583,2.18583v15.58062c0,1.68746 1.3727,3.06017 3.06454,3.06017c0.73007,0 1.43828,-0.26667 1.98911,-0.74318l19.01675,-16.37626c2.77601,-2.3913 6.32143,-3.70717 9.98489,-3.70717h46.82055c8.43732,0 15.30083,-6.86352 15.30083,-15.30083v-74.31833c0,-8.43732 -6.86352,-15.30083 -15.30083,-15.30083zM97.97837,94.37189c7.09521,0 13.08003,-3.75089 16.86152,-10.56632c0.47214,-0.85685 0.31913,-1.91916 -0.37159,-2.60989c-0.41968,-0.41968 -0.97925,-0.63826 -1.5432,-0.63826c-0.36722,0 -0.73444,0.09181 -1.06669,0.27979c-2.00222,1.11915 -4.10062,1.68746 -6.234,1.68746c-7.01215,0 -12.72155,-5.72688 -12.72155,-12.76527c0,-7.2526 5.20228,-12.72155 12.10952,-12.72155c4.23615,0 8.4548,2.86781 11.27453,7.65916c0.93116,1.60003 2.49622,5.02742 2.49622,10.00237c0,12.56417 -8.75208,21.68347 -20.80913,21.68347c-0.58143,0 -1.0492,-0.45028 -1.0492,-1.00548c0.00437,-0.57269 0.45902,-1.00548 1.05357,-1.00548zM58.63337,94.37189c7.09521,0 13.08003,-3.75089 16.86152,-10.56632c0.47214,-0.85685 0.31913,-1.91916 -0.37159,-2.60989c-0.41968,-0.41968 -0.97925,-0.63826 -1.5432,-0.63826c-0.36722,0 -0.73444,0.09181 -1.06669,0.27979c-2.00222,1.11915 -4.10062,1.68746 -6.234,1.68746c-7.01215,0 -12.72155,-5.72688 -12.72155,-12.76527c0,-7.2526 5.20228,-12.72155 12.10952,-12.72155c4.23615,0 8.4548,2.86781 11.27453,7.65916c0.93116,1.60003 2.49622,5.02742 2.49622,10.00237c0,12.56417 -8.75208,21.68347 -20.80913,21.68347c-0.58143,0 -1.0492,-0.45028 -1.0492,-1.00548c0.00437,-0.57269 0.45903,-1.00548 1.05357,-1.00548z" fill="#000000" opacity="0.07"></path><path d="M138.46,19.87869h-104.92c-9.6439,0 -17.48667,7.84277 -17.48667,17.48667v74.31833c0,9.6439 7.84277,17.48667 17.48667,17.48667h21.85833v15.58062c0,2.89404 2.35633,5.246 5.25037,5.246c1.25467,0 2.47436,-0.45465 3.41427,-1.27216l19.02112,-16.37626c2.37381,-2.05031 5.41212,-3.1782 8.55535,-3.1782h46.82055c9.6439,0 17.48667,-7.84277 17.48667,-17.48667v-74.31833c0,-9.6439 -7.84277,-17.48667 -17.48667,-17.48667zM110.79172,78.93116c-1.66998,0.93554 -3.40116,1.40768 -5.16294,1.40768c-5.80995,0 -10.53572,-4.74326 -10.53572,-10.57943c0,-6.00667 4.26675,-10.53572 9.92368,-10.53572c5.11922,0 8.48103,5.0449 9.3816,6.57499c0.82624,1.40768 2.20332,4.43724 2.20332,8.90071c0,1.74429 -0.18798,3.41427 -0.54209,4.99244c-0.01312,-0.01311 -0.0306,-0.0306 -0.04809,-0.04372c-1.38582,-1.38582 -3.51919,-1.67435 -5.21977,-0.71695zM71.44672,78.93116c-1.66998,0.93554 -3.40116,1.40768 -5.16294,1.40768c-5.80995,0 -10.53572,-4.74326 -10.53572,-10.57943c0,-6.00667 4.26675,-10.53572 9.92368,-10.53572c5.11922,0 8.48103,5.0449 9.3816,6.57499c0.82624,1.40768 2.20332,4.43724 2.20332,8.90071c0,1.74429 -0.18798,3.41427 -0.54209,4.99244c-0.01312,-0.01311 -0.0306,-0.0306 -0.04809,-0.04372c-1.38582,-1.38582 -3.51482,-1.67435 -5.21977,-0.71695z" fill="#000000" opacity="0.05"></path><path d="M138.46,24.25036h-104.92c-7.24385,0 -13.115,5.87115 -13.115,13.115v74.31833c0,7.24385 5.87115,13.115 13.115,13.115h21.85833c2.44813,0 4.37167,1.96725 4.37167,4.37167v15.58062c0,0.74755 0.87871,1.14975 1.44702,0.66449l19.01238,-16.37189c3.19132,-2.75415 7.25697,-4.24052 11.41005,-4.24052h46.82055c7.24385,0 13.115,-5.87115 13.115,-13.115v-74.32271c0,-7.24385 -5.87115,-13.115 -13.115,-13.115zM58.63337,98.56869c-1.79238,0 -3.23503,-1.44265 -3.23503,-3.19132c0,-1.79238 1.44265,-3.19132 3.23503,-3.19132c6.8198,0 11.84722,-3.84707 14.9511,-9.4428c-2.18583,1.22407 -4.63397,1.96725 -7.30068,1.96725c-8.21873,0 -14.90738,-6.68865 -14.90738,-14.9511c0,-8.21873 6.0329,-14.90738 14.29535,-14.90738c5.72688,0 10.40457,4.06565 13.15872,8.74333c1.0492,1.79238 2.79787,5.59573 2.79787,11.10403c0,13.50845 -9.48652,23.8693 -22.99497,23.8693zM97.97837,98.56869c-1.79238,0 -3.23503,-1.44265 -3.23503,-3.19132c0,-1.79238 1.44265,-3.19132 3.23503,-3.19132c6.8198,0 11.84722,-3.84707 14.9511,-9.4428c-2.18583,1.22407 -4.63397,1.96725 -7.30068,1.96725c-8.21873,0 -14.90738,-6.68865 -14.90738,-14.9511c0,-8.21873 6.0329,-14.90738 14.29535,-14.90738c5.72688,0 10.40457,4.06565 13.15872,8.74333c1.0492,1.79238 2.79787,5.59573 2.79787,11.10403c0,13.50845 -9.48652,23.8693 -22.99497,23.8693z" fill="#ffffff"></path></g><path d="" fill="none"></path></g></g></svg>